<?xml version="1.0" encoding="utf-8"?>
<!-- Generator: Adobe Illustrator 24.2.1, SVG Export Plug-In . SVG Version: 6.00 Build 0)  -->
<svg version="1.1" id="Warstwa_1" xmlns="http://www.w3.org/2000/svg" xmlns:xlink="http://www.w3.org/1999/xlink" x="0px" y="0px"
	 viewBox="0 0 2000 1740.8" style="enable-background:new 0 0 2000 1740.8;" xml:space="preserve">
<style type="text/css">
	.st0{opacity:0.35;}
	.st1{fill:#262F6A;}
	.st2{fill:#000072;}
	.st3{fill:#D2E7F9;}
	.st4{opacity:0.3;}
	.st5{opacity:0.55;}
	.st6{fill:#FFFFFF;}
	.st7{fill:#19AFF9;}
	.st8{opacity:0.5;}
	.st9{opacity:0.15;}
	.st10{fill:#D16913;}
	.st11{opacity:0.29;}
	.st12{opacity:0.2;}
	.st13{fill:#F3F1A5;}
	.st14{fill:#5F5A57;}
	.st15{fill:#4A83FF;}
	.st16{opacity:0.51;}
	.st17{fill:#EC1C24;}
</style>
<g>
	<g>
		<g class="st0">
			<path class="st1" d="M1807.4,1645.1l-329.9-57.2c-34.1-5.9-56.9-38.3-51-72.4l117.6-678.2c5.9-34.1,38.3-56.9,72.4-51l329.9,57.2
				c34.1,5.9,56.9,38.3,51,72.4l-117.6,678.2C1873.8,1628.2,1841.4,1651,1807.4,1645.1z"/>
			<path class="st2" d="M1818.2,1647.8c-3.7,0-7.4-0.3-11.1-1l-329.9-57.2c-34.9-6.1-58.4-39.4-52.4-74.3L1542.4,837
				c2.9-16.9,12.3-31.7,26.3-41.6c14-9.9,31.1-13.7,48-10.8l329.9,57.2c34.9,6.1,58.4,39.4,52.4,74.3l-117.6,678.2
				c-2.9,16.9-12.3,31.7-26.3,41.6C1844.1,1643.7,1831.3,1647.8,1818.2,1647.8z M1605.6,787.1c-12.4,0-24.5,3.8-34.9,11.1
				c-13.3,9.4-22.1,23.3-24.9,39.4l-117.6,678.2c-5.7,33.1,16.5,64.6,49.6,70.4l329.9,57.2c16,2.8,32.2-0.8,45.5-10.2
				c13.3-9.4,22.1-23.3,24.9-39.4l117.6-678.2c5.7-33.1-16.5-64.6-49.6-70.4l-329.9-57.2C1612.6,787.4,1609.1,787.1,1605.6,787.1z"
				/>
		</g>
		<g>
			<path class="st3" d="M1732.7,1573.3l-329.9-57.2c-34.1-5.9-56.9-38.3-51-72.4l117.6-678.2c5.9-34.1,38.3-56.9,72.4-51l329.9,57.2
				c34.1,5.9,56.9,38.3,51,72.4l-117.6,678.2C1799.2,1556.4,1766.8,1579.2,1732.7,1573.3z"/>
			<path class="st2" d="M1743.4,1576c-3.6,0-7.3-0.3-11-1l-329.9-57.2c-34.9-6.1-58.4-39.4-52.4-74.3l117.6-678.2
				c2.9-16.9,12.3-31.7,26.3-41.6c14-9.9,31.1-13.7,48-10.8l329.9,57.2c34.9,6.1,58.4,39.4,52.4,74.3l-117.6,678.2
				C1801.4,1553.9,1774.1,1576,1743.4,1576z M1733,1571.6c33,5.7,64.6-16.5,70.4-49.6L1921,843.9c5.7-33.1-16.5-64.6-49.6-70.4
				l-329.9-57.2c-16-2.8-32.2,0.9-45.5,10.2c-13.3,9.4-22.1,23.3-24.9,39.4L1353.5,1444c-5.7,33.1,16.5,64.6,49.6,70.4L1733,1571.6z
				"/>
		</g>
		<g class="st4">
			<path class="st2" d="M1920.6,843.8L1803,1522c-5.9,34.1-38.3,56.9-72.4,51l-329.9-57.2c-25.8-4.5-45.1-24.1-50.4-48.1
				c8.3,7.1,18.5,12.2,30.1,14.2l329.9,57.2c34.1,5.9,66.5-16.9,72.4-51l117.6-678.2c1.5-8.4,1.2-16.6-0.5-24.3
				C1915.9,799.6,1924.5,821.3,1920.6,843.8z"/>
		</g>
		<g class="st5">
			<path class="st6" d="M1921.1,815.8c-7.5-5.5-16.4-9.4-26.2-11.1L1565,747.5c-34.1-5.9-66.5,16.9-72.4,51L1375,1476.7
				c-1.7,9.8-1,19.4,1.6,28.4c-18.6-13.6-29-37.1-24.8-61.3l117.6-678.2c5.9-34.1,38.3-56.9,72.4-51l329.9,57.2
				C1896,776,1914.6,793.7,1921.1,815.8z"/>
		</g>
		<g>
			<path class="st2" d="M1743.5,1586.3c-4.2,0-8.5-0.4-12.8-1.1c0,0,0,0,0,0l-329.9-57.2c-40.5-7-67.8-45.7-60.8-86.3l117.6-678.2
				c3.4-19.6,14.3-36.8,30.5-48.3c16.3-11.5,36.1-15.9,55.7-12.5l329.9,57.2c40.5,7,67.8,45.7,60.8,86.3l-117.6,678.2
				C1810.7,1560.6,1779,1586.3,1743.5,1586.3z M1734.8,1561.5c27.5,4.8,53.7-13.7,58.5-41.2l117.6-678.2
				c4.8-27.5-13.7-53.7-41.2-58.5l-329.9-57.2c-13.3-2.3-26.7,0.7-37.8,8.5c-11,7.8-18.4,19.4-20.7,32.7l-117.6,678.2
				c-4.8,27.5,13.7,53.7,41.2,58.5L1734.8,1561.5L1734.8,1561.5z"/>
		</g>
		<g>
			<path class="st1" d="M1728.2,1452.2l-280.3-48.6c-18.9-3.3-31.6-21.3-28.3-40.2l90.9-524c3.3-18.9,21.3-31.6,40.2-28.3
				l280.3,48.6c18.9,3.3,31.6,21.3,28.3,40.2l-90.9,524C1765.1,1442.8,1747.1,1455.5,1728.2,1452.2z"/>
			<path class="st2" d="M1743,1456.2c-1.4,0-2.9-0.1-4.4-0.4l-301.7-52.3c-13.9-2.4-23.3-15.7-20.9-29.6l94.6-545.5
				c1.2-6.7,4.9-12.6,10.5-16.6s12.4-5.5,19.1-4.3l301.7,52.3c13.9,2.4,23.3,15.7,20.9,29.6l-94.6,545.5
				C1766,1447.3,1755.2,1456.2,1743,1456.2z M1739.2,1452.4c12.1,2.1,23.6-6,25.7-18.1l94.6-545.5c2.1-12.1-6-23.6-18.1-25.7
				l-301.7-52.3c-5.8-1-11.7,0.3-16.6,3.7c-4.8,3.4-8.1,8.5-9.1,14.4l-94.6,545.5c-2.1,12.1,6,23.6,18.1,25.7L1739.2,1452.4z"/>
		</g>
		<g>
			<path class="st7" d="M1863.4,892.4l-94.6,545.5c-1.2,7.1-5.4,12.8-11.1,16.3c-4.8,3-10.6,4.2-16.6,3.2l-301.7-52.3
				c-13-2.3-21.7-14.6-19.5-27.7l94.6-545.5c2.3-13,14.6-21.7,27.7-19.5l301.7,52.3C1857,867,1865.7,879.4,1863.4,892.4z"/>
		</g>
		<g>
			<circle class="st2" cx="1578.5" cy="1482.9" r="25.8"/>
		</g>
		<g class="st8">
			<path class="st6" d="M1724.6,1098.3l-199.7-34.6c-9.1-1.6-15.2-10.2-13.6-19.3l22.3-128.3c1.6-9.1,10.2-15.2,19.3-13.6
				l199.7,34.6c9.1,1.6,15.2,10.2,13.6,19.3l-22.3,128.3C1742.3,1093.8,1733.6,1099.8,1724.6,1098.3z"/>
		</g>
		<g class="st8">
			
				<ellipse transform="matrix(0.8175 -0.5759 0.5759 0.8175 -216.0633 1058.2412)" class="st6" cx="1562" cy="870.1" rx="20.2" ry="20.2"/>
		</g>
		<g class="st8">
			<path class="st6" d="M1678.1,1366.3l-199.7-34.6c-9.1-1.6-15.2-10.2-13.6-19.3l22.3-128.3c1.6-9.1,10.2-15.2,19.3-13.6
				l199.7,34.6c9.1,1.6,15.2,10.2,13.6,19.3l-22.3,128.3C1695.8,1361.8,1687.2,1367.9,1678.1,1366.3z"/>
		</g>
		<g class="st8">
			
				<ellipse transform="matrix(0.8175 -0.5759 0.5759 0.8175 -378.8834 1080.3708)" class="st6" cx="1515.5" cy="1138.1" rx="20.2" ry="20.2"/>
		</g>
		<g class="st9">
			<path class="st6" d="M1804.2,1234l-35.4,203.9c-1.2,7.1-5.4,12.8-11.1,16.3l-255.5-551l12.4-71.2c2.3-13,14.6-21.7,27.7-19.5
				l72.3,12.5L1804.2,1234z"/>
		</g>
		<g class="st9">
			<polygon class="st6" points="1838.9,1034.2 1818.6,1151 1672.1,835 1753,849 			"/>
		</g>
		<g class="st9">
			<polygon class="st6" points="1622.8,1436.8 1541.9,1422.8 1447.4,1219.1 1467.7,1102.3 			"/>
		</g>
		<g>
			<path class="st2" d="M1743,1465.8c-2,0-4-0.2-6-0.5h0l-301.7-52.3c-19.2-3.3-32.1-21.6-28.7-40.8l94.6-545.5
				c1.6-9.3,6.7-17.4,14.5-22.8c7.7-5.4,17.1-7.5,26.4-5.9l301.7,52.3c19.2,3.3,32.1,21.6,28.7,40.8l-94.6,545.5
				C1774.8,1453.7,1759.8,1465.8,1743,1465.8z M1740.8,1442.9c6.8,1.2,13.3-3.4,14.5-10.2l94.6-545.5c1.2-6.8-3.4-13.3-10.2-14.5
				L1538,820.4c-3.3-0.6-6.6,0.2-9.4,2.1c-2.7,1.9-4.6,4.8-5.1,8.1l-94.6,545.5c-1.2,6.8,3.4,13.3,10.2,14.5L1740.8,1442.9
				L1740.8,1442.9z"/>
		</g>
		<g>
			<path class="st2" d="M1735.1,811.6c-0.5,0-1,0-1.5-0.1l-75-13c-4.7-0.8-7.8-5.3-7-9.9c0.8-4.7,5.3-7.8,9.9-7l75,13
				c4.7,0.8,7.8,5.3,7,9.9C1742.8,808.7,1739.2,811.6,1735.1,811.6z"/>
		</g>
	</g>
	<g>
		<g class="st4">
			
				<ellipse transform="matrix(0.3823 -0.924 0.924 0.3823 699.9675 1716.7477)" class="st2" cx="1634.1" cy="334.8" rx="246.8" ry="312.4"/>
		</g>
		<g>
			<path class="st6" d="M1677.8,373.1l70,78.6c15.3,17.2,13.8,43.5-3.4,58.8c-17.1,15.3-43.4,13.7-58.7-3.4l-70-78.6
				c11.7-7.1,23-15.4,33.6-24.8C1659.9,394.2,1669.4,384,1677.8,373.1z"/>
			<path class="st2" d="M1716.9,522.7c-11.9,0-23.9-4.9-32.4-14.5l-71.4-80.1l1.8-1.1c11.7-7.1,22.9-15.4,33.3-24.6
				c10.4-9.3,20-19.5,28.4-30.3l1.3-1.6l71.4,80.1c15.9,17.9,14.3,45.3-3.5,61.2C1737.4,519.1,1727.1,522.7,1716.9,522.7z
				 M1618.4,428.9l68.6,77c14.6,16.4,39.9,17.9,56.3,3.3c16.4-14.6,17.9-39.9,3.2-56.4l-68.6-77.1c-8.2,10.4-17.5,20.2-27.5,29.1
				C1640.4,413.9,1629.6,421.9,1618.4,428.9z"/>
		</g>
		<g class="st4">
			<path class="st1" d="M1677.8,373.1l44.3,49.7c-7.2,3-14.1,7.2-20.3,12.7c-18.5,16.5-26.5,40.3-23.5,63.2l-62.6-70.3
				c11.7-7.1,23-15.4,33.6-24.8C1659.9,394.2,1669.4,384,1677.8,373.1z"/>
			<path class="st2" d="M1680.8,504.1l-67.7-76l1.8-1.1c11.7-7.1,22.9-15.4,33.3-24.6c10.4-9.3,20-19.5,28.4-30.3l1.3-1.6l47.3,53
				l-2.2,0.9c-7.2,3-13.9,7.2-19.8,12.4c-17.4,15.5-26,38.6-22.9,61.7L1680.8,504.1z M1618.4,428.9l57.8,64.8
				c-1.3-22.5,7.6-44.4,24.6-59.4c5.6-5,11.8-9,18.6-12.1l-41.3-46.4c-8.2,10.4-17.5,20.2-27.5,29.1
				C1640.4,413.9,1629.6,421.9,1618.4,428.9z"/>
		</g>
		<g>
			<path class="st2" d="M1716.9,533c-14.8,0-29.5-6.1-40.1-18l-70-78.6c-2.4-2.7-3.4-6.3-2.9-9.8c0.5-3.5,2.6-6.6,5.7-8.5
				c11.2-6.8,21.9-14.7,31.8-23.5c10-8.9,19.1-18.6,27.1-28.9c2.2-2.8,5.5-4.5,9.1-4.6c3.6-0.1,7,1.3,9.4,4l70,78.6
				c19.7,22.1,17.7,56.1-4.4,75.8C1742.3,528.6,1729.6,533,1716.9,533z M1634,431l60.7,68.1c10.9,12.2,29.6,13.3,41.8,2.5
				c5.9-5.3,9.4-12.5,9.9-20.4c0.5-7.9-2.2-15.5-7.5-21.4l-60.7-68.1c-6.5,7.4-13.5,14.4-20.9,21
				C1649.9,419.2,1642.1,425.4,1634,431z"/>
		</g>
		<g>
			<path class="st6" d="M1751.7,208.4c17.2,112.3-49.4,218.1-153.1,253.8c-13,4.5-26.5,7.9-40.6,10c-14,2.1-27.9,3-41.7,2.6
				c-109.6-2.9-204.9-83.9-222.2-196.2c-19.4-126.3,67.4-244.5,193.7-263.8C1614.3-4.6,1732.4,82.1,1751.7,208.4z"/>
			<path class="st2" d="M1523.2,476.6c-2.3,0-4.6,0-6.9-0.1c-112.6-3-206.7-86.2-223.8-197.7c-9.4-61.5,5.7-123.1,42.5-173.3
				s91.1-83.1,152.6-92.5c61.5-9.4,123.1,5.7,173.3,42.5c50.2,36.9,83,91,92.5,152.6c17.1,111.5-47.8,219-154.2,255.7
				c-13.1,4.6-26.9,8-40.9,10.1C1546.7,475.7,1534.9,476.6,1523.2,476.6z M1523.5,13.7c-11.7,0-23.5,0.9-35.3,2.7
				c-60.6,9.3-114,41.7-150.3,91.1c-36.3,49.5-51.2,110.1-41.9,170.7c16.9,109.9,109.6,191.8,220.5,194.8
				c13.7,0.4,27.6-0.4,41.4-2.5c13.8-2.1,27.4-5.5,40.3-10c104.9-36.1,168.8-142,152-251.9c-9.3-60.6-41.7-114-91.1-150.3
				C1619.1,29.1,1572,13.7,1523.5,13.7z"/>
		</g>
		<g class="st4">
			<path class="st1" d="M1751.7,208.4c17.2,112.3-49.4,218.1-153.1,253.8c-13,4.5-26.5,7.9-40.6,10c-14,2.1-27.9,3-41.7,2.6
				c-84.2-2.3-159.9-50.5-198.3-123.6c41.5,44.6,99.8,72.2,163,73.8c13.7,0.4,27.7-0.4,41.7-2.6c14.1-2.2,27.6-5.5,40.6-10
				c103.7-35.7,170.3-141.5,153.1-253.8c-4-26-12.2-50.4-23.7-72.4C1723.1,118.9,1744.5,160.9,1751.7,208.4z"/>
			<path class="st2" d="M1523.2,476.6c-2.3,0-4.6,0-6.9-0.1c-84-2.2-160.6-50-199.7-124.6l-6-11.4l8.8,9.4
				c41.8,45,100.8,71.7,161.7,73.3c13.7,0.4,27.6-0.4,41.4-2.5c13.8-2.1,27.4-5.5,40.3-10c104.9-36.1,168.8-142,152-251.9
				c-3.9-25.3-11.8-49.5-23.6-71.9l-6-11.4l8.8,9.4c31.8,34.2,52.4,76.8,59.5,123.2c17.1,111.5-47.8,219-154.2,255.7
				c-13.1,4.6-26.9,8-40.9,10.1C1546.7,475.7,1534.9,476.6,1523.2,476.6z M1325.9,361.5c40.1,67.1,112,109.5,190.5,111.6
				c13.7,0.4,27.6-0.4,41.4-2.5c13.8-2.1,27.4-5.5,40.3-10c104.9-36.1,168.8-142,152-251.9c-6.3-41.4-23.6-79.8-50.1-111.7
				c8.8,19.4,15,40,18.2,61.4c17.1,111.5-47.8,219-154.2,255.7c-13.1,4.6-26.9,8-40.9,10.1c-14,2.1-28.1,3-42,2.6
				C1423.4,425.2,1367.6,401.6,1325.9,361.5z"/>
		</g>
		<g>
			<circle class="st10" cx="1523" cy="243.5" r="176.2"/>
		</g>
		<g class="st4">
			<path class="st2" d="M1670.1,146.6c-31.5-15.9-68-22.3-105.4-16.6c-96.1,14.7-162.2,104.6-147.4,200.8c4,26,13.5,49.8,27.2,70.4
				c-49.5-24.7-86.6-72.2-95.6-131c-14.7-96.1,51.3-186.1,147.4-200.8C1566.6,58.6,1633.5,90.9,1670.1,146.6z"/>
		</g>
		<g>
			<path class="st2" d="M1523.2,486.9c-2.4,0-4.8,0-7.2-0.1c-117.5-3.1-215.8-90-233.7-206.4c-9.9-64.3,5.9-128.5,44.4-180.9
				c38.5-52.4,95.1-86.7,159.3-96.6c64.3-9.8,128.5,5.9,181,44.4c52.4,38.5,86.7,95.1,96.6,159.3l0,0
				c17.8,116.4-49.9,228.7-161.1,267c-13.7,4.8-28,8.3-42.7,10.6C1547.7,486,1535.4,486.9,1523.2,486.9z M1523.5,24.1
				c-11.2,0-22.4,0.9-33.7,2.6c-57.9,8.9-108.9,39.8-143.6,87c-34.7,47.3-48.9,105.2-40,163.1c16.1,105,104.7,183.2,210.6,186
				c13.1,0.4,26.4-0.4,39.5-2.4c13.2-2,26.1-5.2,38.5-9.5c100.2-34.5,161.2-135.7,145.2-240.6l0,0c-8.9-57.9-39.8-108.9-87-143.6
				C1614.8,38.7,1569.8,24.1,1523.5,24.1z"/>
		</g>
		<g>
			<path class="st2" d="M1522.6,431.8c-39.7,0-78.3-12.6-111-36.5c-40.5-29.8-67-73.5-74.7-123.2c-7.6-49.7,4.6-99.4,34.3-139.9
				c29.8-40.5,73.5-67,123.2-74.7c102.6-15.7,198.8,54.9,214.6,157.5c7.6,49.7-4.6,99.4-34.3,139.9c-29.8,40.5-73.5,67-123.2,74.7
				C1541.9,431,1532.2,431.8,1522.6,431.8z M1523.1,79.4c-8.2,0-16.6,0.6-25,1.9c-43.3,6.6-81.5,29.8-107.4,65.1
				c-25.9,35.3-36.6,78.7-29.9,122c6.6,43.3,29.8,81.5,65.1,107.5c35.3,25.9,78.7,36.6,122,29.9c43.3-6.6,81.5-29.8,107.4-65.1
				c25.9-35.3,36.6-78.7,29.9-122l0,0C1672.8,137.6,1602.7,79.4,1523.1,79.4z"/>
		</g>
		<g class="st4">
			<path class="st6" d="M1627.9,269.3c13.1,17.1-1.1,50-31.7,73.3c-30.6,23.4-66,28.5-79.1,11.4c-13.1-17.1,17.1-18,47.7-41.4
				C1595.4,289.2,1614.8,252.2,1627.9,269.3z"/>
		</g>
		<g class="st4">
			<path class="st6" d="M1632.7,242.2c-9.2,0.4-13.8-9.2-14.3-21.3c-0.5-12.1,3.3-22.1,12.5-22.5c9.2-0.4,17.1,9.1,17.6,21.2
				C1649,231.7,1641.9,241.8,1632.7,242.2z"/>
		</g>
		<g class="st4">
			
				<ellipse transform="matrix(0.5229 -0.8524 0.8524 0.5229 513.7214 1381.9561)" class="st2" cx="1491.3" cy="232.1" rx="10.7" ry="10.7"/>
		</g>
		<g class="st4">
			
				<ellipse transform="matrix(0.5918 -0.8061 0.8061 0.5918 385.3438 1303.5237)" class="st2" cx="1479.7" cy="271.3" rx="6.8" ry="6.8"/>
		</g>
		<g class="st4">
			
				<ellipse transform="matrix(0.9285 -0.3714 0.3714 0.9285 44.7149 597.628)" class="st2" cx="1574.1" cy="182.7" rx="6.8" ry="6.8"/>
		</g>
		<g class="st4">
			
				<ellipse transform="matrix(0.3787 -0.9255 0.9255 0.3787 713.1929 1572.4653)" class="st2" cx="1527.8" cy="255" rx="8.8" ry="8.8"/>
		</g>
	</g>
	<g>
		<g>
			<g class="st0">
				<path class="st2" d="M1323.7,516.9c-7-8.8-16.9-14.4-28.1-15.7l-145.7-17V373.9c0-23.2-18.9-42-42-42H937.4l-17.8-54.8
					c-7.2-22-30.9-34.1-53-26.9l-251,81.8h-338c-23.2,0-42,18.9-42,42v81.7L77.1,507.2c-10.7,3.5-19.4,10.9-24.4,20.9
					c-5.1,10-6,21.4-2.5,32.1l185.4,569.3v408.1c0,23.2,18.9,42,42,42h13.6l-2.1,17.8c-2.7,23,13.8,43.9,36.9,46.6l80.3,9.4
					l4.3,13.2c3.5,10.7,10.9,19.4,20.9,24.4c6,3,12.5,4.6,19,4.6c4.4,0,8.8-0.7,13.1-2.1l75.6-24.6l611.5,71.5
					c1.7,0.2,3.3,0.3,5,0.3c9.4,0,18.5-3.1,26-9.1c8.8-7,14.4-16.9,15.7-28.1l30.3-258.9l25.5-8.3c10.7-3.5,19.4-10.9,24.4-20.9
					c5.1-10,6-21.4,2.5-32.1l-33.3-102.2l85.8-733.5C1333.7,536.7,1330.6,525.7,1323.7,516.9z"/>
			</g>
			<g>
				<path class="st6" d="M1103.9,1677l-824.6-96.5c-16.5-1.9-28.2-16.8-26.3-33.3L388.1,391.5c1.9-16.5,16.8-28.2,33.3-26.3
					l824.6,96.5c16.5,1.9,28.2,16.8,26.3,33.3l-135.2,1155.8C1135.2,1667.2,1120.3,1679,1103.9,1677z"/>
				<path class="st2" d="M1107.4,1679c-1.2,0-2.5-0.1-3.7-0.2L279,1582.3c-8.4-1-15.9-5.2-21.2-11.8c-5.3-6.6-7.6-14.9-6.6-23.4
					L386.4,391.3c1-8.4,5.2-15.9,11.8-21.2c6.6-5.2,14.9-7.6,23.4-6.6l824.6,96.5c17.4,2,29.8,17.8,27.8,35.2l-135.2,1155.8
					C1137,1667.1,1123.2,1679,1107.4,1679z M1104.1,1675.3c15.5,1.8,29.6-9.3,31.4-24.8l135.2-1155.8c1.8-15.5-9.3-29.6-24.8-31.4
					l-824.6-96.5c-7.5-0.9-14.9,1.2-20.8,5.9c-5.9,4.7-9.7,11.4-10.6,18.9L254.6,1547.5c-0.9,7.5,1.2,14.9,5.9,20.8
					c4.7,5.9,11.4,9.7,18.9,10.5L1104.1,1675.3z"/>
			</g>
			<g class="st0">
				<path class="st2" d="M1241.4,519l-135.2,1155.8c-0.1,0.8-0.2,1.6-0.4,2.4c-0.7,0-1.3-0.1-1.9-0.2l-824.6-96.5
					c-16.5-1.9-28.3-16.8-26.3-33.3L388.1,391.5c0.1-0.8,0.2-1.6,0.4-2.4c0.7,0,1.3,0.1,2,0.1l824.6,96.5
					C1231.6,487.6,1243.4,502.5,1241.4,519z"/>
			</g>
			<g>
				<path class="st2" d="M1107.4,1689.3c-1.6,0-3.3-0.1-4.9-0.3c0,0,0,0,0,0l-824.6-96.5c-11.1-1.3-21.1-6.9-28.1-15.7
					c-7-8.8-10.1-19.8-8.8-30.9L376.2,390.1c1.3-11.2,6.9-21.1,15.7-28.1c8.8-7,19.8-10.1,30.9-8.8l824.6,96.5
					c23,2.7,39.6,23.6,36.9,46.6l-135.2,1155.8C1146.6,1673.5,1128.4,1689.3,1107.4,1689.3z M1105.3,1665.1
					c9.9,1.2,18.8-5.9,19.9-15.8l135.2-1155.8c1.2-9.8-5.9-18.8-15.8-19.9L420,377.1c-4.8-0.6-9.5,0.8-13.2,3.7
					c-3.8,3-6.1,7.2-6.7,12L264.9,1548.7c-0.6,4.8,0.8,9.5,3.8,13.2c3,3.8,7.2,6.1,12,6.7L1105.3,1665.1L1105.3,1665.1z"/>
			</g>
			<g>
				<path class="st6" d="M1201.1,1373.5l-58.8,19.2L593,1571.6l-181.3,59.1c-15.7,5.1-32.7-3.5-37.8-19.2l-13-39.8L252,1237.3
					L13.5,504.9c-5.1-15.7,3.5-32.7,19.2-37.8L252,395.7l146.7-47.8L822.2,210c15.7-5.1,32.7,3.5,37.8,19.2l38.6,118.7l243.6,748.1
					l78.1,239.7C1225.5,1351.5,1216.9,1368.4,1201.1,1373.5z"/>
				<path class="st2" d="M402.3,1633.8c-4.9,0-9.8-1.2-14.4-3.5c-7.6-3.8-13.2-10.4-15.8-18.4L11.9,505.4
					c-5.4-16.6,3.7-34.6,20.4-40l789.5-257.1c16.6-5.4,34.5,3.7,40,20.3L1222,1335.2c2.6,8.1,2,16.7-1.9,24.2
					c-3.8,7.6-10.4,13.2-18.5,15.8h0l-789.5,257.1C408.9,1633.3,405.6,1633.8,402.3,1633.8z M831.5,210.2c-2.9,0-5.8,0.4-8.7,1.4
					L33.3,468.7c-14.8,4.8-23,20.8-18.1,35.6l360.3,1106.5c2.3,7.2,7.3,13,14.1,16.5c6.7,3.4,14.4,4,21.6,1.7l789.5-257.1
					c7.2-2.3,13-7.3,16.5-14.1c3.4-6.7,4-14.4,1.7-21.6L858.4,229.8C854.5,217.8,843.4,210.2,831.5,210.2z"/>
			</g>
			<g class="st0">
				<path class="st1" d="M1142.3,1096v296.7L593,1571.6H394.7l-2.2-6.9l-108.9-334.3l-31.6-97.1V377.9c0-16.6,13.4-30,30-30h616.7
					L1142.3,1096z"/>
				<path class="st2" d="M593.2,1573.3H393.5l-2.6-8.1l-140.6-431.6V377.9c0-17.5,14.2-31.7,31.7-31.7h617.9L1144,1096v298
					L593.2,1573.3z M396,1569.9h196.7l547.9-178.4v-295.2L897.4,349.6H282c-15.6,0-28.3,12.7-28.3,28.3v755.2L396,1569.9z"/>
			</g>
			<g>
				<path class="st2" d="M402.3,1644.2c-6.5,0-13-1.5-19-4.6c-10-5.1-17.4-13.8-20.9-24.4L2.1,508.6c-7.2-22,4.9-45.8,26.9-53
					l789.5-257.1c22-7.2,45.8,4.9,53,26.9L1231.8,1332c3.5,10.7,2.6,22.1-2.5,32.1c-5.1,10-13.8,17.4-24.4,20.9l-789.5,257.1
					C411.1,1643.5,406.7,1644.2,402.3,1644.2z M831.5,220.5c-1.8,0-3.7,0.3-5.6,0.9L36.5,478.5c-9.4,3.1-14.6,13.2-11.5,22.6
					l360.3,1106.5c1.5,4.6,4.7,8.3,8.9,10.5c4.3,2.2,9.1,2.6,13.7,1.1l789.5-257.1h0c4.6-1.5,8.3-4.7,10.4-8.9
					c2.2-4.3,2.6-9.1,1.1-13.7L848.6,232.9C846.1,225.4,839.1,220.5,831.5,220.5z"/>
			</g>
			<g>
				<path class="st6" d="M1046.1,1516h-803c-24.1,0-43.6-19.5-43.6-43.6V336c0-24.1,19.5-43.6,43.6-43.6h803
					c24.1,0,43.6,19.5,43.6,43.6v1136.4C1089.8,1496.5,1070.2,1516,1046.1,1516z"/>
				<path class="st2" d="M1059.8,1517.7H229.5c-17.5,0-31.7-14.2-31.7-31.7V322.3c0-17.5,14.2-31.7,31.7-31.7h830.3
					c17.5,0,31.7,14.2,31.7,31.7V1486C1091.5,1503.5,1077.2,1517.7,1059.8,1517.7z M229.5,294.1c-15.6,0-28.3,12.7-28.3,28.3V1486
					c0,15.6,12.7,28.3,28.3,28.3h830.3c15.6,0,28.3-12.7,28.3-28.3V322.3c0-15.6-12.7-28.3-28.3-28.3H229.5z"/>
			</g>
			<g>
				<path class="st2" d="M1059.8,1528.1H229.5c-23.2,0-42-18.9-42-42V322.3c0-23.2,18.9-42,42-42h830.3c23.2,0,42,18.9,42,42V1486
					C1101.8,1509.2,1082.9,1528.1,1059.8,1528.1z M229.5,304.4c-9.9,0-18,8.1-18,18V1486c0,9.9,8.1,18,18,18h830.3
					c9.9,0,18-8.1,18-18V322.3c0-9.9-8.1-18-18-18H229.5z"/>
			</g>
			<g class="st4">
				
					<ellipse transform="matrix(0.7071 -0.7071 0.7071 0.7071 -206.163 619.416)" class="st2" cx="644.6" cy="558.6" rx="87.1" ry="87.1"/>
			</g>
			<g class="st4">
				<path class="st2" d="M788,802.6H501.3c-14.7,0-25.2-14-21.3-28.2c16.3-60.2,83.9-105.3,164.7-105.3s148.3,45.1,164.7,105.3
					C813.1,788.6,802.7,802.6,788,802.6z"/>
			</g>
			<g class="st11">
				<path class="st2" d="M881.6,901.4h-43.3c-6.6,0-12-5.4-12-12s5.4-12,12-12h43.3c6.6,0,12,5.4,12,12S888.2,901.4,881.6,901.4z"/>
			</g>
			<g class="st11">
				<path class="st2" d="M788.6,901.4H600c-6.6,0-12-5.4-12-12s5.4-12,12-12h188.7c6.6,0,12,5.4,12,12S795.3,901.4,788.6,901.4z"/>
			</g>
			<g class="st11">
				<path class="st2" d="M746.2,964.2H557.5c-6.6,0-12-5.4-12-12c0-6.6,5.4-12,12-12h188.7c6.6,0,12,5.4,12,12
					C758.2,958.8,752.9,964.2,746.2,964.2z"/>
			</g>
			<g class="st11">
				<path class="st2" d="M648.5,1114.6H459.9c-6.6,0-12-5.4-12-12c0-6.6,5.4-12,12-12h188.7c6.6,0,12,5.4,12,12
					C660.6,1109.2,655.2,1114.6,648.5,1114.6z"/>
			</g>
			<g class="st11">
				<path class="st2" d="M562.1,1069.9H459.9c-6.6,0-12-5.4-12-12s5.4-12,12-12h102.3c6.6,0,12,5.4,12,12S568.8,1069.9,562.1,1069.9
					z"/>
			</g>
			<g class="st11">
				<path class="st2" d="M575,1223.4H459.9c-6.6,0-12-5.4-12-12c0-6.6,5.4-12,12-12H575c6.6,0,12,5.4,12,12
					C587,1218,581.7,1223.4,575,1223.4z"/>
			</g>
			<g class="st11">
				<path class="st2" d="M737.4,1264.9H459.9c-6.6,0-12-5.4-12-12c0-6.6,5.4-12,12-12h277.6c6.6,0,12,5.4,12,12
					C749.5,1259.6,744.1,1264.9,737.4,1264.9z"/>
			</g>
			<g class="st11">
				<path class="st2" d="M648.5,1409.3H459.9c-6.6,0-12-5.4-12-12s5.4-12,12-12h188.7c6.6,0,12,5.4,12,12S655.2,1409.3,648.5,1409.3
					z"/>
			</g>
			<g class="st11">
				<path class="st2" d="M539.8,901.4H379.9c-6.6,0-12-5.4-12-12s5.4-12,12-12h159.8c6.6,0,12,5.4,12,12S546.4,901.4,539.8,901.4z"
					/>
			</g>
			<g class="st4">
				<path class="st2" d="M340.6,1110.7h-43.8c-12.6,0-22.9-10.2-22.9-22.9V1044c0-12.6,10.2-22.9,22.9-22.9h43.8
					c12.6,0,22.9,10.2,22.9,22.9v43.8C363.5,1100.4,353.3,1110.7,340.6,1110.7z"/>
			</g>
			<g class="st4">
				<path class="st2" d="M340.6,1259.6h-43.8c-12.6,0-22.9-10.2-22.9-22.9v-43.8c0-12.6,10.2-22.9,22.9-22.9h43.8
					c12.6,0,22.9,10.2,22.9,22.9v43.8C363.5,1249.4,353.3,1259.6,340.6,1259.6z"/>
			</g>
			<g class="st4">
				<path class="st2" d="M340.6,1408.6h-43.8c-12.6,0-22.9-10.2-22.9-22.9v-43.8c0-12.6,10.2-22.9,22.9-22.9h43.8
					c12.6,0,22.9,10.2,22.9,22.9v43.8C363.5,1398.3,353.3,1408.6,340.6,1408.6z"/>
			</g>
			<g class="st12">
				<path class="st2" d="M1061.1,632.1v826.2c0,15.6-12.7,28.4-28.4,28.4H199.5v-0.6C666.3,1469.2,959.3,1182.5,1061.1,632.1z"/>
			</g>
		</g>
		<g>
			<g class="st4">
				<path class="st2" d="M439.5,678.3l-39.8,120.6c-1.6,5.1-6.4,8.3-11.4,8.3c-1.2,0-2.5-0.2-3.8-0.6c-6.3-2.1-9.7-8.9-7.7-15.2
					l4.2-12.8c-9.8-5-15.9-15.1-15.9-25.9c0-3,0.5-6,1.5-9.1c4.6-13.8,18.5-21.9,32.4-19.6l17.6-53.3c3.5-10.5-2.3-21.8-12.8-25.3
					l-15.4-5.1l-167.1,505.1c-2.1,6.5-5.9,12.3-11,16.9l-10.8,9.6V745.8l63.9-193.2c3.2-9.6,10-17,19.7-21.7l12.5-37.9
					c5.1-15.4,15.8-27.9,30.3-35.2c14.5-7.3,30.9-8.5,46.3-3.4c31.8,10.4,49.1,44.8,38.6,76.5l-12.2,36.9c3.6,6.4,5.5,13,5.5,19.6
					c0,3.7-0.6,7.4-1.8,11l-6.3,19.1l15.4,5.1c11.2,3.7,20.2,11.5,25.6,22C442.2,655.2,443.1,667.1,439.5,678.3z"/>
			</g>
			<g>
				<g>
					<path class="st13" d="M230.2,690.9c-1.3-3.8-1.8-8-1.3-12l13.7-113.8l91.8,68.8c3.3,2.5,6,5.7,7.9,9.5
						C349.6,671.4,244.7,716,230.2,690.9z"/>
					<path class="st2" d="M249,699.9c-9.5,0-17-2.4-20.3-8.2l-0.1-0.3c-1.4-4.1-1.9-8.5-1.4-12.8l14.1-116.8l94.1,70.6
						c3.6,2.7,6.4,6.1,8.4,10.2c4.3,16.2-23.3,35.6-50.7,46.8C278,695.7,261.7,699.9,249,699.9z M231.7,690.2
						c5.9,9.8,30.5,8.2,60.1-3.9c26.9-11.1,52.3-29.2,48.8-42.4c-1.6-3.2-4.1-6.2-7.3-8.6l-89.4-67l-13.4,110.9
						C230.1,682.8,230.5,686.6,231.7,690.2z"/>
				</g>
				<g>
					<path class="st14" d="M236.1,619.4l6.6-54.3l43.8,32.8C271.9,607.3,252.9,615.4,236.1,619.4z"/>
					<path class="st2" d="M234.1,621.6l7.2-59.7l48.1,36.1l-2.1,1.3c-14.8,9.5-33.8,17.6-50.9,21.7L234.1,621.6z M244,568.2
						l-5.9,48.9c15.3-3.9,31.9-11,45.3-19.3L244,568.2z"/>
				</g>
				<g>
					<path class="st2" d="M248.9,707.7c-13.1,0-23.6-4-28-14.4c-0.6-1.3-0.8-2.8-0.7-4.3c0.3-5.1,4.8-9,9.9-8.7
						c3.7,0.2,6.8,2.7,8.1,5.9c2.5,4.1,22.6,4.9,52.8-7.9c13.6-5.8,25.9-13.1,33.8-20.1c6.7-6,9.1-10.7,8.4-12.6
						c-1.5-3.3-0.9-7.3,1.6-10.1c3.5-3.8,9.4-4.1,13.2-0.6l0,0c1,0.9,1.8,2,2.3,3.2c9.4,21.9-20.7,44-52,57.4
						C281.8,702.6,263.7,707.7,248.9,707.7z"/>
				</g>
			</g>
			<g>
				<path class="st2" d="M360.8,796.9c-1.2,0-2.5-0.2-3.8-0.6c-6.3-2.1-9.7-8.9-7.7-15.2l39.7-120.6c1.7-5.1,1.3-10.5-1.1-15.3
					c-2.4-4.8-6.5-8.3-11.6-10l-39.3-12.9c-6.3-2.1-9.7-8.9-7.7-15.2c2.1-6.3,8.9-9.7,15.2-7.7l39.3,12.9
					c11.2,3.7,20.3,11.5,25.6,22c5.3,10.5,6.2,22.5,2.5,33.7l-39.7,120.6C370.5,793.7,365.8,796.9,360.8,796.9z"/>
			</g>
			<g>
				<path class="st15" d="M356.6,563l-92.3-30.4l15.2-46.1c8.4-25.5,35.9-39.3,61.4-30.9h0c25.5,8.4,39.3,35.9,30.9,61.4L356.6,563z
					"/>
			</g>
			<g class="st4">
				<path class="st2" d="M340.9,455.5c-4.2-1.4-8.5-2.1-12.7-2.3c15.6,12.3,22.7,33.4,16.2,53.4l-15.2,46.1l-64.4-21.2l-0.4,1.1
					l92.3,30.4l15.2-46.1C380.2,491.4,366.4,463.9,340.9,455.5z"/>
			</g>
			<g class="st16">
				<path class="st6" d="M363.3,471c-23.5-4.4-47.3,9.1-55,32.5l-12.9,39.3l-31.1-10.2l15.2-46.2c8.4-25.5,35.8-39.3,61.3-30.9
					C350.1,458.5,357.7,464,363.3,471z"/>
			</g>
			<g>
				<path class="st2" d="M356.6,575c-1.3,0-2.5-0.2-3.8-0.6L260.5,544c-3-1-5.5-3.2-7-6c-1.4-2.8-1.7-6.2-0.7-9.2l15.2-46.1
					c10.5-31.7,44.8-49.1,76.5-38.6c31.7,10.5,49.1,44.8,38.6,76.5L368,566.8c-1,3-3.2,5.5-6,7C360.3,574.6,358.5,575,356.6,575z
					 M279.5,524.9l69.4,22.9l11.4-34.7c6.3-19.1-4.1-39.8-23.3-46.2c-19.1-6.3-39.9,4.1-46.2,23.3L279.5,524.9z"/>
			</g>
			<g>
				<path class="st17" d="M179,1138.2L179,1138.2c-1.2,1.8-2.6,3.4-4.3,4.9l-86,76.3l-23.1-112.6c-0.5-2.4-0.7-4.9-0.5-7.3
					c0-0.1,0.1-0.2,0.1-0.2c0.1-1.1,0.2-2.2,0.5-3.3c0.2-1.1,0.5-2.1,0.8-3.2L247.3,546c14.2-43.1,130.3-4.8,116.1,38.3l-180.9,547
					c-0.3,0.9-0.6,1.8-1,2.7l-0.1,0.2C180.7,1135.6,179.9,1137,179,1138.2z"/>
			</g>
			<g>
				<path class="st15" d="M179,1138.2L179,1138.2c-1.2,1.8-2.6,3.4-4.3,4.9l-86,76.3l-23.1-112.6c-0.5-2.4-0.7-4.9-0.5-7.3
					c0-0.1,0.1-0.2,0.1-0.2C75.8,1068.1,189.5,1107,179,1138.2z"/>
			</g>
			<g class="st4">
				<path class="st2" d="M363.4,584.3l-180.9,547c-0.3,0.9-0.7,1.8-1,2.6l0,0.2c-1.5,3.4-3.8,6.4-6.6,8.9l-86,76.4l4.8-19.9
					l56.5-84.2c2.8-2.5-2.6,0.6-1.1-2.8l0-0.2c0.4-0.8,0.7-1.7,1-2.6l180.9-547c3.2-9.5-0.1-18.8-7.1-27
					C349.4,546.2,369.9,564.8,363.4,584.3z"/>
			</g>
			<g class="st16">
				<path class="st6" d="M301.1,529c-8.7,2.8-15.4,8.1-18.1,16.4l-180.9,546.8c-1.5,4.6-1.8,9.4-0.8,14l0.4,96.8l-12.9,16.3
					l-23.1-112.6c-1-4.6-0.7-9.5,0.8-14l180.8-546.8C253.2,528.2,276.7,524.3,301.1,529z"/>
			</g>
			<g>
				<path class="st2" d="M88.8,1231.5c-1.3,0-2.5-0.2-3.8-0.6c-4.1-1.4-7.1-4.8-8-9l-23.2-112.6c-1.4-6.6-1-13.6,1.2-20.2
					l180.9-546.8c4.3-13.2,15.6-22.3,31.7-25.7c30.8-6.4,76.1,8.5,97,32c10.9,12.2,14.6,26.3,10.2,39.5c0,0,0,0,0,0l-180.9,547
					c-2.1,6.5-6,12.3-11.1,16.9l-86,76.4C94.6,1230.4,91.7,1231.5,88.8,1231.5z M283,539.2c-3.8,0-7.3,0.3-10.6,1
					c-11.3,2.4-13.1,7.8-13.7,9.6L77.9,1096.7c-0.8,2.5-1,5.2-0.5,7.7l19,92.3l70.4-62.5c2-1.8,3.4-4,4.2-6.5l180.9-547l0,0
					c0.6-1.8,2.4-7.3-5.3-15.9C333.7,550.2,305,539.2,283,539.2z M363.4,584.3L363.4,584.3L363.4,584.3z"/>
			</g>
			<g>
				<path class="st2" d="M337.8,670.9c-1.2,0-2.4-0.2-3.6-0.6c-6.1-2-9.3-8.5-7.4-14.6c0.6-1.9-1.7-6.3-8.3-11.6
					c-8-6.5-20.5-12.7-34.1-17.2c-30.3-10-49.8-6.6-51.3-2c-2,6.1-8.5,9.4-14.6,7.3c-6.1-2-9.3-8.5-7.4-14.6
					c2.4-7.1,10-19.3,34.6-20.3c13.1-0.5,29.4,2.2,45.9,7.6c16.4,5.4,31.1,12.9,41.4,21.2c19.2,15.4,18.1,29.7,15.8,36.9
					C347.2,667.8,342.7,670.9,337.8,670.9z"/>
			</g>
			<g>
				<path class="st2" d="M357.7,770l2,0.7l18.2-55.3l-2-0.7c-15.3-5-31.7,3.3-36.7,18.5l0,0C334.1,748.6,342.4,765,357.7,770z"/>
			</g>
			<g>
				<path class="st2" d="M179,1149.8c-1.2,0-2.5-0.2-3.7-0.6c-6-2.1-9.3-8.6-7.2-14.7c0.4-1.2-0.8-3.6-3.1-6.2
					c-14.6-16.7-60.9-32.5-82.6-28.2c-3.4,0.7-5.9,1.8-6.2,3c-2.1,6-8.6,9.2-14.7,7.2c-6-2.1-9.3-8.6-7.2-14.7
					c2.3-6.6,8.2-15.1,23.6-18.2c29.8-5.9,84.5,12.8,104.5,35.7c10.3,11.8,9.8,22.2,7.6,28.8C188.3,1146.8,183.8,1149.8,179,1149.8z
					"/>
			</g>
			<g>
				<path class="st2" d="M79.2,1263.3c-1.3,0-2.5-0.2-3.8-0.6c-6.3-2.1-9.7-8.9-7.6-15.2l12-36.4c2.1-6.3,8.9-9.7,15.2-7.6
					c6.3,2.1,9.7,8.9,7.6,15.2l-12,36.4C89,1260.1,84.3,1263.3,79.2,1263.3z"/>
			</g>
		</g>
	</g>
</g>
</svg>
